P3
4 3
15
0 0 0 10 0 10 0 3 3 0 3 6
5 0 0 12 0 12 0 6 6 4 8 12
9 0 0 15 0 15 0 9 9 9 12 15
