P2
4 3
15
15 13 5 2
14 0 5 1
0 0 3 7
