P1
81 5
1111111111111111111111111111111111111111111111111111111111111111111111
11111111111
1000000000000000010000000001000000000000000000000000000000000000000000
00000000001
1000000000000000100000000010000000000000000000000000000000000000000000
00000000001
1000000000000001000000000100000000000000000000000000000000000000000000
00000000001
1111111111111111111111111111111111111111111111111111111111111111111111
11111111111
