P2
30 7
255
199 199 199 199 199 199 199 199 199 199 199 199 199 199 199 199 199
199 199 199 140 140 140 140 140 140 140 140 140 140
223 223 223 100 100 100 223 223 223 223 223 223 223 223 223 223 223
223 223 223 140 140 140 140 140 140 140 140 140 140
223 223 223 223 100 100 100 100 223 223 223 223 223 223 223 223 223
223 223 223 223 223 223 223 223 223 223 223 223 223
140 140 140 140 140 140 140 140 140 140 140 140 140 140 140 140 140
140 140 140 140 140 140 140 140 140 140 140 140 140
199 199 199 199 199 199 199 199 199 199 199 199 199 199 199 199 199
199 199 199 223 223 223 223 223 223 223 223 223 223
199 199 199 199 199 199 199 199 199 199 199 199 199 199 223 223 223
223 223 223 223 223 223 223 223 223 223 223 223 223
140 140 140 140 140 140 140 140 140 140 199 199 199 199 223 223 223
223 223 223 120 120 120 120 120 120 120 120 120 120
