P3
10 7
255
199 233 255  199 233 255  199 233 255  199 233 255  199 233 255  199 233 255
199 233 255  199 233 255  199 233 255  199 233 255
199 233 255  199 233 255  199 233 255  199 233 255  199 233 255  199 233 255
100 233 255  100 233 255  100 233 255  100 233 255
199 233 255  199 233 255  199 233 255  199 233 255  199 233 255  199 233 255
100 233 255  100 233 255  100 233 255  100 233 255
199 233 255  199 233 255  100 233 255  100 233 255  199 233 255  100 233 255
100 233 255  199 233 255  199 233 255  199 233 255
199 233 255  199 233 255  100 233 255  100 233 255  199 233 255  100 233 255
100 233 255  199 233 255  100 100 255  100 100 255
100 100 255  100 100 255  100 100 255  199 233 255  199 233 255  199 233 255
199 233 255  199 233 255  100 100 255  100 100 255
100 100 255  100 100 255  100 100 255  199 233 255  199 233 255  199 233 255
199 233 255  199 233 255  199 233 255  199 233 255
